<?xml version="1.0" encoding="UTF-8"?>
<svg xmlns="http://www.w3.org/2000/svg" xmlns:xlink="http://www.w3.org/1999/xlink" viewBox="0 0 30 30" width="30px" height="30px">
<g id="surface166157690">
<path style=" stroke:none;fill-rule:nonzero;fill:rgb(100%,100%,100%);fill-opacity:1;" d="M 12.34375 6.234375 C 12.128906 5.628906 11.90625 5.019531 11.902344 5.011719 C 11.796875 4.777344 11.554688 4.628906 11.300781 4.652344 C 11.136719 4.667969 7.304688 4.996094 4.847656 6.972656 C 3.5625 8.15625 1 15.09375 1 21.085938 C 1 21.191406 1.027344 21.296875 1.078125 21.386719 C 2.851562 24.496094 7.679688 25.3125 8.777344 25.347656 C 8.785156 25.347656 8.792969 25.347656 8.796875 25.347656 C 8.992188 25.347656 9.175781 25.253906 9.289062 25.097656 L 10.480469 23.484375 C 8.515625 23.1875 8.160156 22.796875 8.074219 22.734375 C 7.632812 22.410156 7.304688 21.949219 7.703125 21.371094 C 8.007812 20.925781 8.648438 20.777344 9.140625 21.027344 C 9.644531 21.265625 10.996094 22.019531 15 22 C 18.976562 21.988281 20.722656 21.15625 20.746094 21.136719 C 21.414062 20.835938 21.9375 20.960938 22.261719 21.40625 C 22.648438 22.011719 22.371094 22.425781 21.929688 22.75 C 21.847656 22.8125 21.648438 22.980469 19.535156 23.480469 L 20.710938 25.097656 C 20.824219 25.253906 21.007812 25.347656 21.203125 25.347656 C 21.210938 25.347656 21.214844 25.347656 21.222656 25.347656 C 22.320312 25.3125 27.148438 24.496094 28.921875 21.386719 C 28.972656 21.296875 29 21.191406 29 21.085938 C 29 15.09375 26.4375 8.15625 25.121094 6.945312 C 22.695312 4.996094 18.863281 4.667969 18.699219 4.652344 C 18.445312 4.632812 18.203125 4.777344 18.097656 5.011719 C 18.09375 5.019531 17.878906 5.640625 17.671875 6.238281 C 17.671875 6.238281 16.039062 6 15 6 C 13.960938 6 12.34375 6.234375 12.34375 6.234375 Z M 11 19 C 9.894531 19 9 17.667969 9 16.019531 C 9 14.375 9.894531 13.042969 11 13.042969 C 12.109375 12.878906 12.976562 14.375 13 16.019531 C 13 17.667969 12.105469 19 11 19 Z M 19 19 C 17.894531 19 17 17.65625 17 16.003906 C 17 14.347656 17.894531 13.007812 19 13.007812 C 20.105469 13.007812 21 14.347656 21 16.003906 C 21 17.65625 20.105469 19 19 19 Z M 19 19 "/>
</g>
</svg>
